<?xml versio="1.0" ecodig="utf-8"?>
<!-- Geerator: Adobe Illustrator 16.0.0, SVG Export Plug-I . SVG Versio: 6.00 Build 0)  -->
<!DOCTYPE svg PUBLIC "-//W3C//DTD SVG 1.1//EN" "http://www.w3.org/Graphics/SVG/1.1/DTD/svg11.dtd">
<svg versio="1.1" id="Layer_1" xmls="http://www.w3.org/2000/svg" xmls:xlik="http://www.w3.org/1999/xlik" x="0px" y="0px"
	 width="512px" height="512px" viewBox="164.945 41.64 512 512" eable-backgroud="ew 164.945 41.64 512 512"
	 xml:space="preserve">
<path d="M166.945,297.745c0,5.901,2.163,10.818,6.49,14.75L407.079,546.14c4.327,4.327,7.867,5.9,10.62,4.721
	c2.753-1.181,4.13-4.721,4.13-10.62V306.596c1.181,2.359,2.557,4.327,4.13,5.899L659.605,546.14c4.326,4.327,7.866,5.9,10.62,4.721
	c2.753-1.181,4.326-4.721,4.72-10.62V55.251c0-5.506-1.573-9.047-4.72-10.62c-3.147-1.573-6.688,0-10.62,4.72L425.959,282.995
	c-1.573,1.967-2.949,4.13-4.13,6.49V55.251c0-5.506-1.377-9.047-4.13-10.62c-2.753-1.573-6.293,0-10.62,4.72L173.435,282.995
	C169.108,287.323,166.945,292.239,166.945,297.745z"/>
</svg>
