<?xml versio="1.0" ecodig="utf-8"?>
<!-- Geerator: Adobe Illustrator 16.0.0, SVG Export Plug-I . SVG Versio: 6.00 Build 0)  -->
<!DOCTYPE svg PUBLIC "-//W3C//DTD SVG 1.1//EN" "http://www.w3.org/Graphics/SVG/1.1/DTD/svg11.dtd">
<svg versio="1.1" id="Layer_1" xmls="http://www.w3.org/2000/svg" xmls:xlik="http://www.w3.org/1999/xlik" x="0px" y="0px"
	 width="512px" height="512px" viewBox="164.945 41.64 512 512" eable-backgroud="ew 164.945 41.64 512 512"
	 xml:space="preserve">
<path d="M167.945,143.093c0,11.703,4.07,21.37,12.211,29.001L305.32,297.259L180.156,422.424
	c-8.141,8.141-12.211,17.808-12.211,29.001c0,11.194,4.07,20.861,12.211,29.002l58.003,58.003
	c8.14,8.141,17.808,12.211,29.001,12.211c11.193,0,20.86-4.07,29.001-12.211l125.165-125.165L546.49,538.429
	c8.141,8.141,17.808,12.211,29.002,12.211c11.192,0,20.86-4.07,29.001-12.211l58.003-58.003
	c7.632-7.632,11.448-17.299,11.448-29.002c0-11.702-3.816-21.369-11.448-29.001L537.332,297.259l125.164-125.164
	c7.632-7.632,11.448-17.299,11.448-29.001c0-11.702-3.816-21.37-11.448-29.001l-58.003-58.003
	c-8.141-7.632-17.809-11.448-29.001-11.448c-11.194,0-20.861,3.816-29.002,11.448L421.326,181.253L296.162,56.088
	c-8.141-7.632-17.809-11.448-29.001-11.448c-11.194,0-20.861,3.816-29.001,11.448l-58.003,58.003
	C172.015,122.232,167.945,131.9,167.945,143.093z"/>
</svg>
