<?xml version="1.0" standalone="no"?>
<!DOCTYPE svg PUBLIC "-//W3C//DTD SVG 1.1//EN" "http://www.w3.org/Graphics/SVG/1.1/DTD/svg11.dtd">
<svg xmlns="http://www.w3.org/2000/svg">
<path transform="scale(-1,-1)" d="m0 396q0 52 37 89t89 37q46 0 83-31 138 88 330 92l75 236q2 8 10 12t16 2l193-46q12 28 38 46t58 17q43 0 73-30t30-74-30-73-73-31q-43 0-73 30t-31 73l-176 41-65-204q183-8 313-93 35 33 84 33 52 0 89-37t37-89q0-35-17-64t-46-46q2-18 2-34 0-67-38-128t-110-108q-70-46-159-70t-188-25q-98 0-187 25t-159 70q-72 47-110 107t-39 129q0 16 3 37-27 17-43 46t-16 61z m43 0q0-38 28-62 28 73 101 131-20 14-46 14-34 0-59-24t-24-59z m56-144q0-56 34-108t95-93q65-41 148-64t175-23 175 23 148 64q63 41 96 93t33 108-33 108-96 93q-64 42-148 64t-175 23-175-23-148-64q-62-41-95-93t-34-108z m211 60q0 32 23 55t54 23 54-23 23-55q0-31-23-53t-54-23q-32 0-54 23t-23 53z m59-202q0 9 6 15t15 6 15-6q43-43 148-43h1q105 0 148 43 6 6 15 6t15-6 6-15-6-16q-55-55-178-55h-1q-123 0-178 55-6 7-6 16z m274 202q0 32 24 55t54 23 54-23 22-55q0-31-22-53t-54-23q-32 0-55 23t-23 53z m225 434q0-25 18-43t43-18 43 18 17 43-17 43-43 18-43-18-18-43z m65-283q73-58 99-133 32 26 32 66 0 34-24 59t-59 24q-27 0-48-16z" />
</svg>
