<?xml version="1.0" standalone="no"?>
<!DOCTYPE svg PUBLIC "-//W3C//DTD SVG 1.1//EN" "http://www.w3.org/Graphics/SVG/1.1/DTD/svg11.dtd">
<svg xmlns="http://www.w3.org/2000/svg">
<path transform="scale(-1,-1)" d="m0 180v149h183v-146q0-24 17-41t40-16 40 16 17 41v346q0 95 70 163t169 67q98 0 168-68t71-164v-76l-109-32-73 34v66q0 23-17 40t-40 16-40-16-17-40v-342q0-98-70-167t-170-69q-99 0-169 70t-70 169z m593-2v150l73-34 109 32v-151q0-23 16-40t40-16 41 16 16 40v154h183v-149q0-99-70-169t-169-70q-99 0-169 69t-70 168z" />
</svg>
